<svg id="baff35f5-aa60-432c-af1b-dc880c1d6ad6" data-name="Calque 1" xmlns="http://www.w3.org/2000/svg" xmlns:xlink="http://www.w3.org/1999/xlink" viewBox="0 0 162 55">
  <defs>
    <linearGradient id="b17cec4a-5ae8-4329-9277-ca3f2d55858a" x1="114.74" y1="6.85" x2="124.53" y2="6.85" gradientUnits="userSpaceOnUse">
      <stop offset="0" stop-color="#14632d"/>
      <stop offset="1" stop-color="#23803a"/>
    </linearGradient>
    <linearGradient id="fda4ade2-5385-4159-867b-feb71668827f" x1="124.53" y1="4.47" x2="137.2" y2="4.47" gradientUnits="userSpaceOnUse">
      <stop offset="0" stop-color="#318b44"/>
      <stop offset="1" stop-color="#65b983"/>
    </linearGradient>
    <linearGradient id="b1228367-1f6d-4ad7-8912-48475d7710f1" x1="137.97" y1="4.79" x2="142.36" y2="4.79" gradientUnits="userSpaceOnUse">
      <stop offset="0" stop-color="#59b581"/>
      <stop offset="1" stop-color="#3fa236"/>
    </linearGradient>
    <linearGradient id="f89ee353-9fe7-4c59-9fba-50d20a0443f1" x1="140.04" y1="3.8" x2="145.86" y2="3.8" gradientUnits="userSpaceOnUse">
      <stop offset="0" stop-color="#6bb86b"/>
      <stop offset="1" stop-color="#65b983"/>
    </linearGradient>
    <linearGradient id="a8c7d0ed-dd50-47fe-9bf8-1075854f60bc" x1="145.84" y1="2.69" x2="153.41" y2="2.69" xlink:href="#b1228367-1f6d-4ad7-8912-48475d7710f1"/>
    <linearGradient id="a2b9bbca-142d-4424-b0f6-e7cc5a682051" x1="151.28" y1="7.48" x2="157.6" y2="7.48" gradientUnits="userSpaceOnUse">
      <stop offset="0" stop-color="#59b581"/>
      <stop offset="1" stop-color="#65b983"/>
    </linearGradient>
    <linearGradient id="af90d393-232d-4fe6-a9db-0aa04c1a14a6" x1="163.02" y1="50.99" x2="170.6" y2="50.99" gradientTransform="translate(-12.33 -57.24) rotate(5.99)" gradientUnits="userSpaceOnUse">
      <stop offset="0" stop-color="#59b581"/>
      <stop offset="1" stop-color="#a1d0ac"/>
    </linearGradient>
    <linearGradient id="b16eac11-3213-4c82-a4b9-01fbe802214a" x1="154.62" y1="11.55" x2="159.27" y2="11.55" xlink:href="#a2b9bbca-142d-4424-b0f6-e7cc5a682051"/>
    <linearGradient id="ed17227e-f268-47d3-92cd-8604ba78bf01" x1="156.78" y1="14" x2="162" y2="14" gradientUnits="userSpaceOnUse">
      <stop offset="0" stop-color="#7cc198"/>
      <stop offset="1" stop-color="#c5deb5"/>
    </linearGradient>
    <linearGradient id="b80a5263-82dd-4397-b66c-33504f703a84" x1="172.2" y1="73.87" x2="178.93" y2="73.87" gradientTransform="matrix(0.99, 0.15, -0.15, 0.99, -11.98, -83.73)" xlink:href="#af90d393-232d-4fe6-a9db-0aa04c1a14a6"/>
    <linearGradient id="a16ce2da-9228-4380-896e-41dd7e6a583b" x1="151.57" y1="17.58" x2="159.1" y2="17.58" xlink:href="#a2b9bbca-142d-4424-b0f6-e7cc5a682051"/>
    <linearGradient id="e06aabbd-dc3c-4102-b882-aea9d6662def" x1="147.99" y1="21.9" x2="155.52" y2="21.9" xlink:href="#ed17227e-f268-47d3-92cd-8604ba78bf01"/>
    <linearGradient id="b88f0295-3636-4df4-a8e4-b0c157b3b155" x1="146.01" y1="24.5" x2="149.49" y2="24.5" gradientUnits="userSpaceOnUse">
      <stop offset="0" stop-color="#ddebcf"/>
      <stop offset="1" stop-color="#deebce"/>
    </linearGradient>
    <linearGradient id="ff408445-fba6-4bac-833c-927e92a34bcd" x1="137.2" y1="25.2" x2="147.7" y2="25.2" gradientUnits="userSpaceOnUse">
      <stop offset="0" stop-color="#c7dda8"/>
      <stop offset="1" stop-color="#d5e5b8"/>
    </linearGradient>
    <linearGradient id="ba46db01-49f3-470e-b03e-639084dfa683" x1="137.2" y1="27.74" x2="147.7" y2="27.74" gradientUnits="userSpaceOnUse">
      <stop offset="0" stop-color="#d6e8ce"/>
      <stop offset="1" stop-color="#d7e9d1"/>
    </linearGradient>
    <linearGradient id="aa15f6d2-8769-4643-8807-6befdb5c2db9" x1="124.53" y1="5.98" x2="137.2" y2="5.98" gradientUnits="userSpaceOnUse">
      <stop offset="0" stop-color="#23933e"/>
      <stop offset="1" stop-color="#59b25b"/>
    </linearGradient>
    <linearGradient id="b176ac29-2e54-4989-bf03-7c3b555fe83e" x1="122.73" y1="6.85" x2="132.71" y2="6.85" gradientUnits="userSpaceOnUse">
      <stop offset="0" stop-color="#18632d"/>
      <stop offset="1" stop-color="#18642d"/>
    </linearGradient>
    <linearGradient id="bdd47b5c-9b60-4c61-a586-fb2781737018" x1="139.13" y1="12.82" x2="145.34" y2="12.82" xlink:href="#f89ee353-9fe7-4c59-9fba-50d20a0443f1"/>
    <linearGradient id="a2f47126-9825-4f02-9148-d41c48cbcdeb" x1="114.74" y1="16.09" x2="124.53" y2="16.09" xlink:href="#aa15f6d2-8769-4643-8807-6befdb5c2db9"/>
    <linearGradient id="e2cc5953-330d-43af-9936-8160c9d4f7eb" x1="114.74" y1="16.09" x2="124.53" y2="16.09" gradientUnits="userSpaceOnUse">
      <stop offset="0" stop-color="#4ea551"/>
      <stop offset="1" stop-color="#a1cc85"/>
    </linearGradient>
    <linearGradient id="a07bddec-7710-4832-a497-2859cd6039c7" x1="122.73" y1="15.54" x2="132.71" y2="15.54" xlink:href="#aa15f6d2-8769-4643-8807-6befdb5c2db9"/>
    <linearGradient id="adbc23c4-3a29-4695-9925-484e8bf26d68" x1="124.53" y1="20.41" x2="136.36" y2="20.41" xlink:href="#e2cc5953-330d-43af-9936-8160c9d4f7eb"/>
    <linearGradient id="a1b196ad-cbf0-4daa-99ca-1642733bb2e8" x1="124.53" y1="15.54" x2="132.71" y2="15.54" xlink:href="#e2cc5953-330d-43af-9936-8160c9d4f7eb"/>
    <linearGradient id="f532a418-f0fe-4a29-9d02-20bc1a278677" x1="132.7" y1="20.41" x2="143.41" y2="20.41" xlink:href="#ed17227e-f268-47d3-92cd-8604ba78bf01"/>
    <linearGradient id="a519a036-3f94-47d8-9c5b-1450f680e092" x1="132.71" y1="13.06" x2="143.41" y2="13.06" xlink:href="#ff408445-fba6-4bac-833c-927e92a34bcd"/>
    <linearGradient id="eb268437-73ab-4bc2-bf72-31c86e87616c" x1="136.36" y1="20.58" x2="144.61" y2="20.58" xlink:href="#ed17227e-f268-47d3-92cd-8604ba78bf01"/>
    <linearGradient id="f3d282ae-9b69-4c68-9d61-1352b1bbbf5a" x1="136.36" y1="25.2" x2="144.62" y2="25.2" xlink:href="#ba46db01-49f3-470e-b03e-639084dfa683"/>
    <linearGradient id="e3c27048-0a2d-43db-875c-902e7d515bd9" x1="132.35" y1="26.35" x2="137.2" y2="26.35" xlink:href="#ed17227e-f268-47d3-92cd-8604ba78bf01"/>
    <linearGradient id="b530ecee-461e-45a1-bd4c-c6411bcad91f" x1="137.2" y1="32.11" x2="141.79" y2="32.11" gradientUnits="userSpaceOnUse">
      <stop offset="0" stop-color="#dbede6"/>
      <stop offset="0.49" stop-color="#dcece1"/>
      <stop offset="1" stop-color="#ddebd5"/>
    </linearGradient>
  </defs>
  <g>
    <path d="M.9,45.43a2.15,2.15,0,0,1-.6-1.59V31a2,2,0,0,1,.53-1.52A2,2,0,0,1,2.34,29h8.07a2.46,2.46,0,0,1,1.59.42,1.62,1.62,0,0,1,.51,1.33A1.59,1.59,0,0,1,12,32a2.55,2.55,0,0,1-1.58.4H4.65v3.13H9.93a2.42,2.42,0,0,1,1.58.43A1.64,1.64,0,0,1,12,37.28a1.56,1.56,0,0,1-.51,1.3A2.55,2.55,0,0,1,9.93,39H4.65v4.85a2.16,2.16,0,0,1-.59,1.6A2.14,2.14,0,0,1,2.48,46,2.14,2.14,0,0,1,.9,45.43Z" transform="translate(-0.3 -0.21)" style="fill: #065189"/>
    <path d="M18.16,45a7.28,7.28,0,0,1-2.94-3,9.67,9.67,0,0,1-1-4.6,9.72,9.72,0,0,1,1-4.6,7.23,7.23,0,0,1,2.94-3,9.14,9.14,0,0,1,4.51-1.06,9.14,9.14,0,0,1,4.51,1.06,7.15,7.15,0,0,1,2.93,3,9.84,9.84,0,0,1,1,4.6,9.67,9.67,0,0,1-1,4.6,7.22,7.22,0,0,1-2.94,3,9.05,9.05,0,0,1-4.48,1.07A9.14,9.14,0,0,1,18.16,45Zm7.51-3.67a6.27,6.27,0,0,0,1.08-4,6.13,6.13,0,0,0-1.09-3.94,3.67,3.67,0,0,0-3-1.34,3.64,3.64,0,0,0-3,1.33,6.12,6.12,0,0,0-1.09,3.95,6.18,6.18,0,0,0,1.09,4,3.65,3.65,0,0,0,3,1.34A3.63,3.63,0,0,0,25.67,41.36Z" transform="translate(-0.3 -0.21)" style="fill: #065189"/>
    <path d="M48.91,44.3a1.57,1.57,0,0,1-.64,1.28,2.22,2.22,0,0,1-1.47.52A2.25,2.25,0,0,1,44.85,45l-3.12-4.56a2.65,2.65,0,0,0-.71-.71,1.67,1.67,0,0,0-.88-.23H38.58v4.3a2.19,2.19,0,0,1-.58,1.6,2.12,2.12,0,0,1-1.59.59,2.15,2.15,0,0,1-1.59-.59,2.12,2.12,0,0,1-.59-1.6V31a1.84,1.84,0,0,1,2-2h6a7,7,0,0,1,4.63,1.33,4.82,4.82,0,0,1,1.55,3.86,5.1,5.1,0,0,1-1.06,3.25,5.18,5.18,0,0,1-3,1.79,3.24,3.24,0,0,1,1.38.53A5.09,5.09,0,0,1,47,40.93l1.49,2.14A2.23,2.23,0,0,1,48.91,44.3Zm-5.2-8.53a1.72,1.72,0,0,0,.63-1.49,1.79,1.79,0,0,0-.63-1.53,3.68,3.68,0,0,0-2.11-.47H38.53v3.95H41.6A3.77,3.77,0,0,0,43.71,35.77Z" transform="translate(-0.3 -0.21)" style="fill: #065189"/>
    <path d="M68.23,29.43A2.18,2.18,0,0,1,68.81,31V44.06a2,2,0,0,1-.53,1.44A1.93,1.93,0,0,1,65,44.06V37l-2.74,5a3.07,3.07,0,0,1-.86,1.09,1.95,1.95,0,0,1-2.17,0A3.07,3.07,0,0,1,58.33,42l-2.72-4.9v6.92a1.94,1.94,0,0,1-.54,1.43,1.93,1.93,0,0,1-3.32-1.43V31a2.14,2.14,0,0,1,.58-1.56,2.05,2.05,0,0,1,1.51-.61A2,2,0,0,1,55,29.2a2.81,2.81,0,0,1,.89,1.07l4.42,8.31,4.4-8.31a2.27,2.27,0,0,1,2-1.45A2,2,0,0,1,68.23,29.43Z" transform="translate(-0.3 -0.21)" style="fill: #065189"/>
    <path d="M88.85,44.06a1.71,1.71,0,0,1-.64,1.34,2.15,2.15,0,0,1-1.45.56A1.84,1.84,0,0,1,85,44.8l-1.09-2.42H76.16L75.05,44.8a1.86,1.86,0,0,1-.73.87,1.92,1.92,0,0,1-1,.29,2.24,2.24,0,0,1-1.48-.56,1.67,1.67,0,0,1-.66-1.34,2,2,0,0,1,.22-.89l6.34-13a2.2,2.2,0,0,1,.93-1A2.69,2.69,0,0,1,80,28.8a2.77,2.77,0,0,1,1.35.35,2.17,2.17,0,0,1,.94,1l6.34,13A2,2,0,0,1,88.85,44.06Zm-11.2-5h4.81L80.05,33.7Z" transform="translate(-0.3 -0.21)" style="fill: #065189"/>
    <path d="M93.71,45.68A8.32,8.32,0,0,1,91,44.52a2.19,2.19,0,0,1-.59-.65,1.87,1.87,0,0,1-.18-.87,2,2,0,0,1,.43-1.25,1.3,1.3,0,0,1,1-.53,2,2,0,0,1,.6.1,3,3,0,0,1,.72.36,7.82,7.82,0,0,0,2,.79,9.21,9.21,0,0,0,2.2.24,4.4,4.4,0,0,0,2.15-.42,1.33,1.33,0,0,0,.73-1.23,1.11,1.11,0,0,0-.68-1,9.62,9.62,0,0,0-2.61-.79A14.76,14.76,0,0,1,93,38.12a4.39,4.39,0,0,1-1.89-1.64,4.58,4.58,0,0,1-.54-2.3,4.65,4.65,0,0,1,.91-2.78,6,6,0,0,1,2.52-2,8.78,8.78,0,0,1,3.59-.71,11.8,11.8,0,0,1,3.12.38,7.92,7.92,0,0,1,2.5,1.2,1.89,1.89,0,0,1,.61.67,1.81,1.81,0,0,1,.18.85,2,2,0,0,1-.42,1.25,1.25,1.25,0,0,1-1,.53,1.81,1.81,0,0,1-.58-.09,3.57,3.57,0,0,1-.75-.37l-.68-.37a5.67,5.67,0,0,0-1.32-.48,7.19,7.19,0,0,0-1.65-.18,3.62,3.62,0,0,0-2,.47,1.39,1.39,0,0,0-.74,1.23,1,1,0,0,0,.26.75,2.71,2.71,0,0,0,1,.56,14.51,14.51,0,0,0,2.13.57,14.17,14.17,0,0,1,3.63,1.21,4.62,4.62,0,0,1,1.88,1.65,4.24,4.24,0,0,1,.55,2.21,4.65,4.65,0,0,1-.89,2.8A5.71,5.71,0,0,1,101,45.44a9.64,9.64,0,0,1-3.71.66A14.44,14.44,0,0,1,93.71,45.68Z" transform="translate(-0.3 -0.21)" style="fill: #065189"/>
    <path d="M131.24,29.43a2.17,2.17,0,0,1,.57,1.56V44.06a1.91,1.91,0,0,1-.53,1.44,1.88,1.88,0,0,1-1.39.53,1.84,1.84,0,0,1-1.92-2V37l-2.74,5a3,3,0,0,1-.87,1.09,1.93,1.93,0,0,1-2.16,0,3.19,3.19,0,0,1-.87-1.09l-2.71-4.9v6.92a1.94,1.94,0,0,1-.54,1.43,1.93,1.93,0,0,1-3.33-1.43V31a2.14,2.14,0,0,1,.59-1.56A2.09,2.09,0,0,1,118,29.2a2.9,2.9,0,0,1,.89,1.07l4.42,8.31,4.4-8.31a2.26,2.26,0,0,1,2-1.45A2,2,0,0,1,131.24,29.43Z" transform="translate(-0.3 -0.21)" style="fill: #065189"/>
  </g>
  <g>
    <polygon points="124.53 2.54 114.74 10.53 122.73 11.15 124.53 2.54" style="fill: url(#b17cec4a-5ae8-4329-9277-ca3f2d55858a)"/>
    <polygon points="137.2 2.08 136.68 6.86 124.53 2.56 137.2 2.08" style="fill: url(#fda4ade2-5385-4159-867b-feb71668827f)"/>
    <polygon points="142.36 8.03 137.97 6.33 138.5 1.55 142.36 8.03" style="fill: url(#b1228367-1f6d-4ad7-8912-48475d7710f1)"/>
    <polygon points="145.86 1.32 140.04 0.89 143.51 6.71 145.86 1.32" style="fill: url(#f89ee353-9fe7-4c59-9fba-50d20a0443f1)"/>
    <polygon points="153.41 4.8 145.84 5.38 148.19 0 153.41 4.8" style="fill: url(#a8c7d0ed-dd50-47fe-9bf8-1075854f60bc)"/>
    <polygon points="157.6 5.99 151.28 11.84 156.51 3.12 157.6 5.99" style="fill: url(#a2b9bbca-142d-4424-b0f6-e7cc5a682051)"/>
    <polygon points="144.88 6.71 146.36 15.05 152.47 6.92 144.88 6.71" style="fill: url(#af90d393-232d-4fe6-a9db-0aa04c1a14a6)"/>
    <polygon points="157.44 8.44 159.27 10.48 154.62 14.66 157.44 8.44" style="fill: url(#b16eac11-3213-4c82-a4b9-01fbe802214a)"/>
    <polygon points="162 17.47 156.78 14.71 161.43 10.53 162 17.47" style="fill: url(#ed17227e-f268-47d3-92cd-8604ba78bf01)"/>
    <polygon points="154.21 11.38 146.64 16.18 147.4 21.78 154.21 11.38" style="fill: url(#b80a5263-82dd-4397-b66c-33504f703a84)"/>
    <polygon points="159.1 17.77 151.57 20.13 153.87 15.04 159.1 17.77" style="fill: url(#a16ce2da-9228-4380-896e-41dd7e6a583b)"/>
    <polygon points="155.52 19.86 153.11 23.94 148 22.21 155.52 19.86" style="fill: url(#e06aabbd-dc3c-4102-b882-aea9d6662def)"/>
    <polygon points="149.49 24.07 149.09 26.09 146.01 22.9 149.49 24.07" style="fill: url(#b88f0295-3636-4df4-a8e4-b0c157b3b155)"/>
    <polygon points="147.7 25.36 137.2 28.23 144.62 22.18 147.7 25.36" style="fill: url(#ff408445-fba6-4bac-833c-927e92a34bcd)"/>
    <polygon points="147.7 25.36 141.79 30.11 137.2 28.23 147.7 25.36" style="fill: url(#ba46db01-49f3-470e-b03e-639084dfa683)"/>
    <polygon points="124.53 2.54 132.71 9.43 137.2 7.05 124.53 2.54" style="fill: url(#aa15f6d2-8769-4643-8807-6befdb5c2db9)"/>
    <polygon points="122.73 11.15 132.71 9.43 124.53 2.54 122.73 11.15" style="fill: url(#b176ac29-2e54-4989-bf03-7c3b555fe83e)"/>
    <polygon points="145.34 17.64 139.13 8 142.99 9.49 145.34 17.64" style="fill: url(#bdd47b5c-9b60-4c61-a586-fb2781737018)"/>
    <polygon points="132.71 9.43 143.41 16.69 137.2 7.05 132.71 9.43" style="fill: #90c57f"/>
    <polygon points="114.74 10.53 124.53 21.65 122.73 11.15 114.74 10.53" style="fill: url(#a2f47126-9825-4f02-9148-d41c48cbcdeb)"/>
    <polygon points="115.31 16.69 114.74 10.53 124.53 21.65 115.31 16.69" style="fill: url(#e2cc5953-330d-43af-9936-8160c9d4f7eb)"/>
    <polygon points="120.53 21.65 115.31 16.69 124.53 21.65 120.53 21.65" style="fill: #90c57f"/>
    <polygon points="132.71 9.43 122.73 11.15 124.53 21.65 132.71 9.43" style="fill: url(#a07bddec-7710-4832-a497-2859cd6039c7)"/>
    <polygon points="136.36 24.47 124.53 21.65 132.71 16.35 136.36 24.47" style="fill: url(#adbc23c4-3a29-4695-9925-484e8bf26d68)"/>
    <polygon points="125.11 24.47 124.53 21.65 136.36 24.47 125.11 24.47" style="fill: #90c57f"/>
    <polygon points="132.71 9.43 124.53 21.65 132.71 16.35 132.71 9.43" style="fill: url(#a1b196ad-cbf0-4daa-99ca-1642733bb2e8)"/>
    <polygon points="143.41 16.69 132.7 16.35 136.36 24.47 143.41 16.69" style="fill: url(#f532a418-f0fe-4a29-9d02-20bc1a278677)"/>
    <polygon points="132.71 9.43 132.71 16.35 137.59 16.51 143.41 16.69 132.71 9.43" style="fill: url(#a519a036-3f94-47d8-9c5b-1450f680e092)"/>
    <polygon points="136.35 24.47 144.61 22.18 143.41 16.69 136.35 24.47" style="fill: url(#eb268437-73ab-4bc2-bf72-31c86e87616c)"/>
    <polygon points="137.2 28.23 136.36 24.47 144.62 22.18 137.2 28.23" style="fill: url(#f3d282ae-9b69-4c68-9d61-1352b1bbbf5a)"/>
    <polygon points="137.2 28.23 132.35 24.47 136.36 24.47 137.2 28.23" style="fill: url(#e3c27048-0a2d-43db-875c-902e7d515bd9)"/>
    <polygon points="141.79 30.11 137.58 35.99 137.2 28.23 141.79 30.11" style="fill: url(#b530ecee-461e-45a1-bd4c-c6411bcad91f)"/>
  </g>
  <path d="M111.08,46s-1-2.44.37-9.2c0,0,1.31-6.77-4.82-8,0,0,1.52,2.24.55,8.65A8,8,0,0,0,111.08,46Z" transform="translate(-0.3 -0.21)" style="fill: #065189"/>
  <path d="M111.49,25.22A2.19,2.19,0,1,1,109.31,23,2.23,2.23,0,0,1,111.49,25.22Z" transform="translate(-0.3 -0.21)" style="fill: #065189"/>
  <g>
    <path d="M.45,55.06a.45.45,0,0,1-.14-.36V51.16a.48.48,0,0,1,.12-.35.45.45,0,0,1,.34-.12H3a.54.54,0,0,1,.35.1.35.35,0,0,1,.12.3.36.36,0,0,1-.12.29.54.54,0,0,1-.35.09H1.28v1H2.82a.6.6,0,0,1,.36.09.39.39,0,0,1,.11.3.37.37,0,0,1-.11.29.59.59,0,0,1-.36.1H1.28V54.7a.48.48,0,0,1-.13.36.45.45,0,0,1-.35.13A.48.48,0,0,1,.45,55.06Z" transform="translate(-0.3 -0.21)" style="fill: #877f7a"/>
    <path d="M4.81,54.93a1.87,1.87,0,0,1-.75-.8,2.85,2.85,0,0,1,0-2.42,1.85,1.85,0,0,1,.75-.79A2.27,2.27,0,0,1,6,50.64a2.23,2.23,0,0,1,1.15.28,1.87,1.87,0,0,1,.76.79,2.95,2.95,0,0,1,0,2.42,1.89,1.89,0,0,1-.76.8A2.23,2.23,0,0,1,6,55.21,2.27,2.27,0,0,1,4.81,54.93Zm2-.88a1.71,1.71,0,0,0,.32-1.13,1.77,1.77,0,0,0-.31-1.13A1.08,1.08,0,0,0,6,51.4a1.06,1.06,0,0,0-.88.39,2.21,2.21,0,0,0,0,2.26,1.06,1.06,0,0,0,.88.4A1,1,0,0,0,6.84,54.05Z" transform="translate(-0.3 -0.21)" style="fill: #877f7a"/>
    <path d="M12.68,54.8a.34.34,0,0,1-.15.29.48.48,0,0,1-.33.12.5.5,0,0,1-.42-.24l-.84-1.24a.76.76,0,0,0-.23-.24.66.66,0,0,0-.3-.07H9.9V54.7a.53.53,0,0,1-.13.36.48.48,0,0,1-.35.13.45.45,0,0,1-.36-.13.49.49,0,0,1-.14-.36V51.16A.48.48,0,0,1,9,50.81a.47.47,0,0,1,.34-.12H11a1.78,1.78,0,0,1,1.19.35,1.23,1.23,0,0,1,.4,1,1.29,1.29,0,0,1-.28.86,1.35,1.35,0,0,1-.81.45.7.7,0,0,1,.34.15,1.15,1.15,0,0,1,.29.32l.48.72A.5.5,0,0,1,12.68,54.8Zm-1.24-2.27a.68.68,0,0,0,0-.94,1.08,1.08,0,0,0-.61-.14H9.88v1.22h.95A1.08,1.08,0,0,0,11.44,52.53Z" transform="translate(-0.3 -0.21)" style="fill: #877f7a"/>
    <path d="M17.68,50.8a.48.48,0,0,1,.13.35v3.59a.45.45,0,0,1-.12.33.46.46,0,0,1-.62,0,.45.45,0,0,1-.12-.33V52.51l-.9,1.69a.83.83,0,0,1-.19.24.44.44,0,0,1-.25.08.41.41,0,0,1-.25-.08.71.71,0,0,1-.2-.24l-.9-1.66v2.2a.45.45,0,0,1-.12.33.46.46,0,0,1-.62,0,.45.45,0,0,1-.12-.33V51.15a.48.48,0,0,1,.13-.35.44.44,0,0,1,.33-.14.51.51,0,0,1,.47.32l1.28,2.44L16.89,51a.52.52,0,0,1,.46-.32A.44.44,0,0,1,17.68,50.8Z" transform="translate(-0.3 -0.21)" style="fill: #877f7a"/>
    <path d="M23,54.76a.4.4,0,0,1-.15.3.47.47,0,0,1-.32.12.39.39,0,0,1-.23-.07.36.36,0,0,1-.16-.2l-.34-.74H19.6l-.33.74a.41.41,0,0,1-.16.2.39.39,0,0,1-.23.07.48.48,0,0,1-.33-.12.4.4,0,0,1-.15-.3.63.63,0,0,1,.05-.21L20.16,51a.55.55,0,0,1,.21-.24.6.6,0,0,1,.3-.07.52.52,0,0,1,.3.08.54.54,0,0,1,.22.23l1.71,3.58A.63.63,0,0,1,23,54.76Zm-3-1.34h1.47l-.73-1.64Z" transform="translate(-0.3 -0.21)" style="fill: #877f7a"/>
    <path d="M24.11,55.05A.46.46,0,0,1,24,54.7V51.5H23c-.31,0-.47-.14-.47-.41s.16-.4.47-.4h3c.31,0,.47.14.47.4s-.16.41-.47.41H25v3.2a.46.46,0,0,1-.13.35.53.53,0,0,1-.72,0Z" transform="translate(-0.3 -0.21)" style="fill: #877f7a"/>
    <path d="M27,55.06a.48.48,0,0,1-.13-.36V51.15A.45.45,0,0,1,27,50.8a.53.53,0,0,1,.72,0,.45.45,0,0,1,.13.35V54.7a.51.51,0,0,1-.85.36Z" transform="translate(-0.3 -0.21)" style="fill: #877f7a"/>
    <path d="M29.7,54.93a1.81,1.81,0,0,1-.75-.8,2.85,2.85,0,0,1,0-2.42,1.79,1.79,0,0,1,.75-.79,2.52,2.52,0,0,1,2.31,0,1.87,1.87,0,0,1,.76.79,2.95,2.95,0,0,1,0,2.42,1.89,1.89,0,0,1-.76.8,2.52,2.52,0,0,1-2.31,0Zm2-.88a1.71,1.71,0,0,0,.32-1.13,1.77,1.77,0,0,0-.31-1.13,1.09,1.09,0,0,0-.88-.39,1.06,1.06,0,0,0-.88.39,2.21,2.21,0,0,0,0,2.26,1.06,1.06,0,0,0,.88.4A1,1,0,0,0,31.73,54.05Z" transform="translate(-0.3 -0.21)" style="fill: #877f7a"/>
    <path d="M37.55,50.8a.48.48,0,0,1,.13.35V54.7a.48.48,0,0,1-.13.36.42.42,0,0,1-.33.13.44.44,0,0,1-.37-.16l-2.12-2.72V54.7a.52.52,0,0,1-.12.36.45.45,0,0,1-.34.13.42.42,0,0,1-.33-.13.48.48,0,0,1-.13-.36V51.15a.48.48,0,0,1,.13-.35.46.46,0,0,1,.34-.14.42.42,0,0,1,.36.17l2.12,2.69V51.15a.48.48,0,0,1,.13-.35.46.46,0,0,1,.66,0Z" transform="translate(-0.3 -0.21)" style="fill: #877f7a"/>
    <path d="M39.27,55.09a1.75,1.75,0,0,1-.7-.33.4.4,0,0,1-.14-.15.54.54,0,0,1,0-.2.45.45,0,0,1,.1-.27.32.32,0,0,1,.36-.1.48.48,0,0,1,.16.08,2.68,2.68,0,0,0,.55.25,2.39,2.39,0,0,0,.62.08,1.24,1.24,0,0,0,.64-.14.47.47,0,0,0,.22-.4.36.36,0,0,0-.21-.32,2.84,2.84,0,0,0-.73-.23,3.89,3.89,0,0,1-.94-.29,1.21,1.21,0,0,1-.51-.42,1.1,1.1,0,0,1-.16-.62,1.2,1.2,0,0,1,.23-.71,1.47,1.47,0,0,1,.64-.5,2.25,2.25,0,0,1,.92-.18,2.35,2.35,0,0,1,1.48.45.64.64,0,0,1,.14.15.53.53,0,0,1,0,.19.45.45,0,0,1-.1.28.32.32,0,0,1-.36.1l-.16-.08a3.75,3.75,0,0,0-.48-.25,1.73,1.73,0,0,0-.55-.08,1.08,1.08,0,0,0-.61.15.47.47,0,0,0-.22.41.36.36,0,0,0,.08.25.76.76,0,0,0,.29.17,3.68,3.68,0,0,0,.56.16,3.14,3.14,0,0,1,1.24.49,1,1,0,0,1,.38.81,1.21,1.21,0,0,1-.23.72,1.4,1.4,0,0,1-.63.48,2.52,2.52,0,0,1-.95.17A3.48,3.48,0,0,1,39.27,55.09Z" transform="translate(-0.3 -0.21)" style="fill: #877f7a"/>
    <path d="M48.45,54.83a.34.34,0,0,1-.12.26.37.37,0,0,1-.27.12.38.38,0,0,1-.28-.12l-.5-.45a2.23,2.23,0,0,1-.67.42,1.93,1.93,0,0,1-.75.15,2.14,2.14,0,0,1-.82-.16,1.38,1.38,0,0,1-.56-.44,1.14,1.14,0,0,1-.2-.65,1.22,1.22,0,0,1,.22-.71,1.89,1.89,0,0,1,.68-.57,1.9,1.9,0,0,1-.34-.47,1.12,1.12,0,0,1-.11-.47,1,1,0,0,1,.17-.57,1,1,0,0,1,.46-.38,1.44,1.44,0,0,1,.67-.14,1.3,1.3,0,0,1,.86.27.94.94,0,0,1,.31.74,1.06,1.06,0,0,1-.19.62,1.67,1.67,0,0,1-.59.5l.78.72a2.38,2.38,0,0,0,.21-.76.38.38,0,0,1,.14-.28.36.36,0,0,1,.27-.1.41.41,0,0,1,.28.11.34.34,0,0,1,.09.31A2.86,2.86,0,0,1,47.77,54l.55.51A.35.35,0,0,1,48.45,54.83Zm-1.7-.69-1.06-1a.85.85,0,0,0-.48.74.52.52,0,0,0,.19.42.73.73,0,0,0,.5.16A1.33,1.33,0,0,0,46.75,54.14Zm-1-2.73a.45.45,0,0,0-.12.33.51.51,0,0,0,.07.26,1.83,1.83,0,0,0,.26.31,1.25,1.25,0,0,0,.4-.3.49.49,0,0,0,.12-.32.36.36,0,0,0-.11-.29.37.37,0,0,0-.29-.12A.44.44,0,0,0,45.71,51.41Z" transform="translate(-0.3 -0.21)" style="fill: #877f7a"/>
    <path d="M51.4,55.09a1.8,1.8,0,0,1-.71-.33.37.37,0,0,1-.13-.15.45.45,0,0,1,.06-.47.28.28,0,0,1,.22-.12A.34.34,0,0,1,51,54a.78.78,0,0,1,.16.08,2.46,2.46,0,0,0,.55.25,2.31,2.31,0,0,0,.61.08,1.24,1.24,0,0,0,.64-.14.45.45,0,0,0,.22-.4.37.37,0,0,0-.2-.32,3,3,0,0,0-.73-.23,3.62,3.62,0,0,1-.94-.29,1,1,0,0,1-.68-1,1.2,1.2,0,0,1,.23-.71,1.53,1.53,0,0,1,.64-.5,2.29,2.29,0,0,1,.92-.18,2.33,2.33,0,0,1,1.48.45.48.48,0,0,1,.14.15.38.38,0,0,1,0,.19.4.4,0,0,1-.1.28.3.3,0,0,1-.35.1l-.17-.08a2.78,2.78,0,0,0-.48-.25,1.68,1.68,0,0,0-.55-.08,1.08,1.08,0,0,0-.61.15.47.47,0,0,0-.22.41.37.37,0,0,0,.09.25.71.71,0,0,0,.28.17,3.53,3.53,0,0,0,.57.16,3.15,3.15,0,0,1,1.23.49,1,1,0,0,1,.38.81,1.2,1.2,0,0,1-.22.72,1.38,1.38,0,0,1-.64.48,2.46,2.46,0,0,1-.94.17A3.38,3.38,0,0,1,51.4,55.09Z" transform="translate(-0.3 -0.21)" style="fill: #877f7a"/>
    <path d="M55,55.06a.48.48,0,0,1-.13-.36V51.15A.45.45,0,0,1,55,50.8a.53.53,0,0,1,.72,0,.45.45,0,0,1,.13.35V54.7a.51.51,0,0,1-.85.36Z" transform="translate(-0.3 -0.21)" style="fill: #877f7a"/>
    <path d="M61.06,50.8a.48.48,0,0,1,.13.35v3.59a.45.45,0,0,1-.12.33.46.46,0,0,1-.62,0,.45.45,0,0,1-.12-.33V52.51l-.9,1.69a.83.83,0,0,1-.19.24.44.44,0,0,1-.25.08.41.41,0,0,1-.25-.08.71.71,0,0,1-.2-.24l-.9-1.66v2.2a.45.45,0,0,1-.12.33.46.46,0,0,1-.62,0,.45.45,0,0,1-.12-.33V51.15a.48.48,0,0,1,.13-.35.44.44,0,0,1,.33-.14.51.51,0,0,1,.47.32L59,53.42,60.27,51a.52.52,0,0,1,.46-.32A.44.44,0,0,1,61.06,50.8Z" transform="translate(-0.3 -0.21)" style="fill: #877f7a"/>
    <path d="M62.58,54.73a2,2,0,0,1-.49-1.42V51.15a.48.48,0,0,1,.49-.49.47.47,0,0,1,.35.14.45.45,0,0,1,.13.35v2.21a1.22,1.22,0,0,0,.24.81.93.93,0,0,0,.71.28.9.9,0,0,0,.71-.29,1.18,1.18,0,0,0,.25-.8V51.15a.45.45,0,0,1,.13-.35.45.45,0,0,1,.35-.14.48.48,0,0,1,.35.14.45.45,0,0,1,.13.35v2.16a1.87,1.87,0,0,1-.49,1.41,1.94,1.94,0,0,1-1.43.49A2,2,0,0,1,62.58,54.73Z" transform="translate(-0.3 -0.21)" style="fill: #877f7a"/>
    <path d="M66.94,55a.45.45,0,0,1-.12-.34V51.15A.45.45,0,0,1,67,50.8a.49.49,0,0,1,.36-.14.47.47,0,0,1,.36.14.45.45,0,0,1,.14.35v3.2h1.62c.3,0,.46.14.46.41s-.16.39-.46.39H67.28A.45.45,0,0,1,66.94,55Z" transform="translate(-0.3 -0.21)" style="fill: #877f7a"/>
    <path d="M74.61,54.76a.42.42,0,0,1-.14.3.52.52,0,0,1-.33.12.42.42,0,0,1-.39-.27l-.34-.74H71.27l-.34.74a.41.41,0,0,1-.16.2.39.39,0,0,1-.23.07.52.52,0,0,1-.33-.12.39.39,0,0,1-.14-.3.46.46,0,0,1,.05-.21L71.83,51a.48.48,0,0,1,.2-.24.66.66,0,0,1,.3-.07.58.58,0,0,1,.31.08.52.52,0,0,1,.21.23l1.71,3.58A.63.63,0,0,1,74.61,54.76Zm-3-1.34h1.48l-.74-1.64Z" transform="translate(-0.3 -0.21)" style="fill: #877f7a"/>
    <path d="M75.78,55.05a.47.47,0,0,1-.14-.35V51.5h-1c-.32,0-.47-.14-.47-.41s.15-.4.47-.4h3c.32,0,.47.14.47.4s-.15.41-.47.41h-1v3.2a.46.46,0,0,1-.5.49A.48.48,0,0,1,75.78,55.05Z" transform="translate(-0.3 -0.21)" style="fill: #877f7a"/>
    <path d="M78.7,55.06a.53.53,0,0,1-.13-.36V51.15a.48.48,0,0,1,.13-.35.49.49,0,0,1,.36-.14.5.5,0,0,1,.37.14.48.48,0,0,1,.13.35V54.7a.53.53,0,0,1-.13.36.49.49,0,0,1-.37.13A.48.48,0,0,1,78.7,55.06Z" transform="translate(-0.3 -0.21)" style="fill: #877f7a"/>
    <path d="M81.37,54.93a1.89,1.89,0,0,1-.76-.8,2.85,2.85,0,0,1,0-2.42,1.87,1.87,0,0,1,.76-.79,2.5,2.5,0,0,1,2.3,0,1.87,1.87,0,0,1,.76.79,2.85,2.85,0,0,1,0,2.42,1.89,1.89,0,0,1-.76.8,2.5,2.5,0,0,1-2.3,0Zm2-.88a2.16,2.16,0,0,0,0-2.26,1.19,1.19,0,0,0-1.76,0,2.18,2.18,0,0,0,0,2.26,1,1,0,0,0,.87.4A1.07,1.07,0,0,0,83.4,54.05Z" transform="translate(-0.3 -0.21)" style="fill: #877f7a"/>
    <path d="M89.22,50.8a.52.52,0,0,1,.13.35V54.7a.53.53,0,0,1-.13.36.45.45,0,0,1-.34.13.47.47,0,0,1-.37-.16l-2.12-2.72V54.7a.52.52,0,0,1-.12.36.42.42,0,0,1-.33.13.45.45,0,0,1-.34-.13.52.52,0,0,1-.12-.36V51.15a.48.48,0,0,1,.13-.35.46.46,0,0,1,.69,0l2.12,2.69V51.15a.52.52,0,0,1,.13-.35.44.44,0,0,1,.33-.14A.46.46,0,0,1,89.22,50.8Z" transform="translate(-0.3 -0.21)" style="fill: #877f7a"/>
    <path d="M90.94,55.09a1.8,1.8,0,0,1-.71-.33.37.37,0,0,1-.13-.15.45.45,0,0,1,.06-.47.28.28,0,0,1,.22-.12.34.34,0,0,1,.14,0,.78.78,0,0,1,.16.08,2.46,2.46,0,0,0,.55.25,2.31,2.31,0,0,0,.61.08,1.24,1.24,0,0,0,.64-.14.45.45,0,0,0,.22-.4.37.37,0,0,0-.2-.32,3,3,0,0,0-.73-.23,3.62,3.62,0,0,1-.94-.29,1,1,0,0,1-.68-1,1.2,1.2,0,0,1,.23-.71,1.53,1.53,0,0,1,.64-.5,2.25,2.25,0,0,1,.92-.18,2.33,2.33,0,0,1,1.48.45.48.48,0,0,1,.14.15.38.38,0,0,1,0,.19.4.4,0,0,1-.1.28.3.3,0,0,1-.35.1L93,51.73a2.78,2.78,0,0,0-.48-.25A1.68,1.68,0,0,0,92,51.4a1.08,1.08,0,0,0-.61.15.47.47,0,0,0-.22.41.37.37,0,0,0,.09.25.71.71,0,0,0,.28.17,3.53,3.53,0,0,0,.57.16,3.15,3.15,0,0,1,1.23.49,1,1,0,0,1,.38.81,1.2,1.2,0,0,1-.22.72,1.43,1.43,0,0,1-.64.48,2.46,2.46,0,0,1-.94.17A3.38,3.38,0,0,1,90.94,55.09Z" transform="translate(-0.3 -0.21)" style="fill: #877f7a"/>
    <path d="M100.5,50.8a.52.52,0,0,1,.13.35v3.59a.45.45,0,0,1-.12.33.45.45,0,0,1-.32.12.41.41,0,0,1-.31-.12.45.45,0,0,1-.12-.33V52.51l-.9,1.69a.69.69,0,0,1-.19.24.44.44,0,0,1-.25.08.41.41,0,0,1-.25-.08.71.71,0,0,1-.2-.24l-.89-1.66v2.2a.45.45,0,0,1-.13.33.46.46,0,0,1-.62,0,.45.45,0,0,1-.12-.33V51.15a.48.48,0,0,1,.13-.35.44.44,0,0,1,.34-.14.51.51,0,0,1,.46.32l1.28,2.44L99.7,51a.53.53,0,0,1,.46-.32A.46.46,0,0,1,100.5,50.8Z" transform="translate(-0.3 -0.21)" style="fill: #877f7a"/>
    <path d="M101.67,55a.45.45,0,0,1-.12-.34V51.16a.48.48,0,0,1,.12-.35.45.45,0,0,1,.34-.12h2.24c.31,0,.47.13.47.38s-.16.39-.47.39h-1.74v1h1.61c.32,0,.47.13.47.39s-.15.38-.47.38h-1.61v1.12h1.74c.31,0,.47.13.47.38s-.16.38-.47.38H102A.45.45,0,0,1,101.67,55Zm1.52-4.68a.22.22,0,0,1-.15-.06.21.21,0,0,1-.07-.15.22.22,0,0,1,.09-.16l.54-.54a.42.42,0,0,1,.31-.14.33.33,0,0,1,.24.1.34.34,0,0,1,.11.24.28.28,0,0,1-.07.19A.42.42,0,0,1,104,50l-.69.34A.21.21,0,0,1,103.19,50.35Z" transform="translate(-0.3 -0.21)" style="fill: #877f7a"/>
    <path d="M105.45,55a.45.45,0,0,1-.12-.34V51.16a.48.48,0,0,1,.12-.35.45.45,0,0,1,.34-.12h1.27a2.68,2.68,0,0,1,1.25.27,1.92,1.92,0,0,1,.81.76,2.71,2.71,0,0,1,0,2.4,1.81,1.81,0,0,1-.8.77,2.73,2.73,0,0,1-1.26.26h-1.27A.45.45,0,0,1,105.45,55Zm1.54-.67a1.44,1.44,0,0,0,0-2.87h-.68v2.87Z" transform="translate(-0.3 -0.21)" style="fill: #877f7a"/>
    <path d="M110.31,55.06a.53.53,0,0,1-.13-.36V51.15a.48.48,0,0,1,.13-.35.49.49,0,0,1,.36-.14.46.46,0,0,1,.36.14.45.45,0,0,1,.14.35V54.7a.49.49,0,0,1-.14.36.45.45,0,0,1-.36.13A.48.48,0,0,1,110.31,55.06Z" transform="translate(-0.3 -0.21)" style="fill: #877f7a"/>
    <path d="M113,54.93a1.87,1.87,0,0,1-.76-.79,2.64,2.64,0,0,1-.27-1.22,2.57,2.57,0,0,1,.27-1.21,1.87,1.87,0,0,1,.76-.79,2.25,2.25,0,0,1,1.15-.28,2.32,2.32,0,0,1,1.43.45.44.44,0,0,1,.13.15.38.38,0,0,1,0,.19.48.48,0,0,1-.09.29.3.3,0,0,1-.23.11.36.36,0,0,1-.15,0,.44.44,0,0,1-.15-.08,2.09,2.09,0,0,0-.47-.24,1.7,1.7,0,0,0-.46-.07,1.11,1.11,0,0,0-.91.38,1.7,1.7,0,0,0-.31,1.12c0,1,.41,1.51,1.22,1.51a1.27,1.27,0,0,0,.44-.08,2.3,2.3,0,0,0,.49-.23l.16-.08a.32.32,0,0,1,.14,0,.27.27,0,0,1,.23.11.45.45,0,0,1,.09.28.42.42,0,0,1,0,.2.58.58,0,0,1-.13.15,2.32,2.32,0,0,1-1.43.45A2.25,2.25,0,0,1,113,54.93Z" transform="translate(-0.3 -0.21)" style="fill: #877f7a"/>
    <path d="M120.54,54.76a.42.42,0,0,1-.14.3.52.52,0,0,1-.33.12.42.42,0,0,1-.39-.27l-.34-.74H117.2l-.34.74a.36.36,0,0,1-.16.2.37.37,0,0,1-.23.07.52.52,0,0,1-.33-.12.39.39,0,0,1-.14-.3.46.46,0,0,1,0-.21L117.76,51a.48.48,0,0,1,.2-.24.66.66,0,0,1,.3-.07.58.58,0,0,1,.31.08.52.52,0,0,1,.21.23l1.71,3.58A.63.63,0,0,1,120.54,54.76Zm-3-1.34H119l-.74-1.64Z" transform="translate(-0.3 -0.21)" style="fill: #877f7a"/>
    <path d="M121.23,55a.45.45,0,0,1-.12-.34V51.15a.45.45,0,0,1,.13-.35.49.49,0,0,1,.36-.14.46.46,0,0,1,.36.14.45.45,0,0,1,.14.35v3.2h1.62c.3,0,.46.14.46.41s-.16.39-.46.39h-2.15A.45.45,0,0,1,121.23,55Z" transform="translate(-0.3 -0.21)" style="fill: #877f7a"/>
    <path d="M124.82,55a.45.45,0,0,1-.12-.34V51.16a.48.48,0,0,1,.12-.35.45.45,0,0,1,.34-.12h2.24c.31,0,.47.13.47.38s-.16.39-.47.39h-1.74v1h1.61c.32,0,.47.13.47.39s-.15.38-.47.38h-1.61v1.12h1.74c.31,0,.47.13.47.38s-.16.38-.47.38h-2.24A.45.45,0,0,1,124.82,55Z" transform="translate(-0.3 -0.21)" style="fill: #877f7a"/>
    <path d="M129.09,55.09a1.69,1.69,0,0,1-.7-.33.33.33,0,0,1-.14-.15.45.45,0,0,1,.06-.47.28.28,0,0,1,.22-.12.34.34,0,0,1,.14,0,.59.59,0,0,1,.16.08,2.46,2.46,0,0,0,.55.25,2.37,2.37,0,0,0,.61.08,1.22,1.22,0,0,0,.64-.14.46.46,0,0,0,.23-.4.36.36,0,0,0-.21-.32,3,3,0,0,0-.73-.23,3.75,3.75,0,0,1-.94-.29,1.08,1.08,0,0,1-.68-1,1.15,1.15,0,0,1,.24-.71,1.44,1.44,0,0,1,.63-.5,2.3,2.3,0,0,1,.93-.18,2.37,2.37,0,0,1,1.48.45.44.44,0,0,1,.13.15.38.38,0,0,1,0,.19.45.45,0,0,1-.09.28.29.29,0,0,1-.23.12.27.27,0,0,1-.13,0l-.17-.08a3.13,3.13,0,0,0-.47-.25,1.75,1.75,0,0,0-.56-.08,1.08,1.08,0,0,0-.61.15.49.49,0,0,0-.22.41.37.37,0,0,0,.09.25.79.79,0,0,0,.28.17,3.87,3.87,0,0,0,.57.16,3.2,3.2,0,0,1,1.24.49,1,1,0,0,1,.37.81,1.2,1.2,0,0,1-.22.72A1.4,1.4,0,0,1,131,55a2.55,2.55,0,0,1-.95.17A3.48,3.48,0,0,1,129.09,55.09Z" transform="translate(-0.3 -0.21)" style="fill: #877f7a"/>
  </g>
</svg>